<svg xmlns="http://www.w3.org/2000/svg" viewBox="0 0 240 240" width="240" height="240">
  <rect x="50" y="50" width="140" height="140" rx="6" fill="#2a3252" stroke="#9aa6c4" stroke-width="8"/>
  <g stroke="#6c8cff" stroke-width="1.4" opacity="0.6">
    <line x1="64" y1="58" x2="64" y2="182"/>
    <line x1="78" y1="58" x2="78" y2="182"/>
    <line x1="92" y1="58" x2="92" y2="182"/>
    <line x1="106" y1="58" x2="106" y2="182"/>
    <line x1="120" y1="58" x2="120" y2="182"/>
    <line x1="134" y1="58" x2="134" y2="182"/>
    <line x1="148" y1="58" x2="148" y2="182"/>
    <line x1="162" y1="58" x2="162" y2="182"/>
    <line x1="176" y1="58" x2="176" y2="182"/>
    <line x1="58" y1="64" x2="182" y2="64"/>
    <line x1="58" y1="78" x2="182" y2="78"/>
    <line x1="58" y1="92" x2="182" y2="92"/>
    <line x1="58" y1="106" x2="182" y2="106"/>
    <line x1="58" y1="120" x2="182" y2="120"/>
    <line x1="58" y1="134" x2="182" y2="134"/>
    <line x1="58" y1="148" x2="182" y2="148"/>
    <line x1="58" y1="162" x2="182" y2="162"/>
    <line x1="58" y1="176" x2="182" y2="176"/>
  </g>
</svg>
